<?xml version="1.0" encoding="UTF-8"?>
<!DOCTYPE svg PUBLIC "-//W3C//DTD SVG 1.1//EN" "http://www.w3.org/Graphics/SVG/1.1/DTD/svg11.dtd">
<svg xmlns="http://www.w3.org/2000/svg" version="1.1" width="5000px" height="1231px" style="shape-rendering:geometricPrecision; text-rendering:geometricPrecision; image-rendering:optimizeQuality; fill-rule:evenodd; clip-rule:evenodd" xmlns:xlink="http://www.w3.org/1999/xlink">
<g><path style="opacity:0.998" fill="#177a56" d="M 1176.5,-0.5 C 1194.83,-0.5 1213.17,-0.5 1231.5,-0.5C 1324.6,3.92216 1409.27,32.7555 1485.5,86C 1492.67,91.8333 1499.83,97.6667 1507,103.5C 1506.57,107.381 1505.24,111.047 1503,114.5C 1467.92,179.66 1432.59,244.66 1397,309.5C 1323.11,246.815 1238.27,224.315 1142.5,242C 1079.15,258.076 1025.32,289.91 981,337.5C 905.094,423.868 870.094,524.868 876,640.5C 883.634,752.59 928.8,846.09 1011.5,921C 1087.29,984.197 1173.62,1005.53 1270.5,985C 1318.48,972.019 1360.48,948.686 1396.5,915C 1450.21,864.118 1486.38,802.618 1505,730.5C 1511.45,706.352 1517.12,682.019 1522,657.5C 1532.03,599.644 1543.03,541.978 1555,484.5C 1579.57,367.714 1629.9,264.047 1706,173.5C 1797.73,67.2181 1913.9,9.21812 2054.5,-0.5C 2072.5,-0.5 2090.5,-0.5 2108.5,-0.5C 2213.64,5.14537 2306.64,41.312 2387.5,108C 2350.94,176.281 2314.28,244.448 2277.5,312.5C 2234.96,275.897 2185.96,252.064 2130.5,241C 2039.97,227.207 1960.31,250.207 1891.5,310C 1827.88,368.758 1787.38,440.925 1770,526.5C 1750.84,627.705 1764.17,724.372 1810,816.5C 1840.72,875.885 1884.55,923.051 1941.5,958C 2031.77,1008.3 2121.77,1007.97 2211.5,957C 2257.44,927.397 2293.27,888.563 2319,840.5C 2336.27,808.844 2349.11,775.511 2357.5,740.5C 2253.42,740.996 2149.42,740.496 2045.5,739C 2086.79,663.58 2127.96,588.08 2169,512.5C 2304.76,511.501 2440.6,511.168 2576.5,511.5C 2594.73,647.685 2577.23,779.018 2524,905.5C 2482.99,999.825 2421.83,1078.32 2340.5,1141C 2267.56,1194.46 2185.9,1224.29 2095.5,1230.5C 2078.83,1230.5 2062.17,1230.5 2045.5,1230.5C 1910.05,1220.69 1796.55,1166.02 1705,1066.5C 1677.52,1036.02 1653.52,1003.02 1633,967.5C 1582.78,1054.05 1514.28,1122.22 1427.5,1172C 1363.05,1206.77 1294.39,1226.27 1221.5,1230.5C 1204.17,1230.5 1186.83,1230.5 1169.5,1230.5C 1062.81,1222.89 968.474,1185.06 886.5,1117C 855.11,1090.34 826.777,1060.84 801.5,1028.5C 767.141,1095.36 716.141,1145.19 648.5,1178C 612.166,1193.92 574.166,1202.92 534.5,1205C 356.167,1205.5 177.834,1205.67 -0.5,1205.5C -0.5,811.833 -0.5,418.167 -0.5,24.5C 161.167,24.3333 322.834,24.5 484.5,25C 600.063,32.4861 686.563,85.9861 744,185.5C 755.287,207.36 764.62,230.027 772,253.5C 828.192,161.303 904.692,91.4694 1001.5,44C 1057.19,18.3284 1115.52,3.49502 1176.5,-0.5 Z M 228.5,244.5 C 307.834,244.333 387.167,244.5 466.5,245C 514.705,249.182 547.872,273.682 566,318.5C 582.996,367.194 577.662,413.194 550,456.5C 530.709,482.567 504.876,497.4 472.5,501C 387.501,501.5 302.501,501.667 217.5,501.5C 217.5,416.167 217.5,330.833 217.5,245.5C 221.371,245.815 225.038,245.482 228.5,244.5 Z M 217.5,718.5 C 319.501,718.333 421.501,718.5 523.5,719C 569.214,725.714 601.381,750.214 620,792.5C 638.829,841.695 634.496,888.695 607,933.5C 582.397,968.387 548.563,985.72 505.5,985.5C 409.538,985.468 313.538,985.468 217.5,985.5C 217.5,896.5 217.5,807.5 217.5,718.5 Z"/></g>
<g><path style="opacity:0.987" fill="#177a56" d="M 3174.5,19.5 C 3218.87,16.2738 3254.04,32.6071 3280,68.5C 3305.35,107.607 3312.69,149.94 3302,195.5C 3292.95,231.183 3273.12,259.016 3242.5,279C 3195.22,302.674 3151.89,297.007 3112.5,262C 3084.92,232.458 3070.92,197.291 3070.5,156.5C 3070.85,108.31 3089.52,69.1438 3126.5,39C 3141.1,28.8605 3157.1,22.3605 3174.5,19.5 Z M 3184.5,59.5 C 3221.94,61.7685 3247.44,80.4351 3261,115.5C 3275.03,155.643 3269.36,192.643 3244,226.5C 3215.13,256.35 3182.96,260.517 3147.5,239C 3121.86,217.485 3108.86,189.818 3108.5,156C 3109.21,126.595 3119.55,101.261 3139.5,80C 3152.33,68.2476 3167.33,61.4143 3184.5,59.5 Z"/></g>
<g><path style="opacity:0.987" fill="#177a56" d="M 3418.5,18.5 C 3445.03,18.6191 3468.53,26.9524 3489,43.5C 3489.67,44.5 3489.67,45.5 3489,46.5C 3483.07,57.3656 3476.9,68.0322 3470.5,78.5C 3456,67.0029 3439.5,60.3362 3421,58.5C 3391.58,61.3045 3379.58,77.3045 3385,106.5C 3387.87,113.757 3392.71,119.257 3399.5,123C 3415.85,130.45 3432.51,137.116 3449.5,143C 3487.57,158.44 3503.73,186.606 3498,227.5C 3492.93,263.231 3472.77,284.731 3437.5,292C 3400.22,297.459 3367.56,287.793 3339.5,263C 3345.71,251.42 3352.04,239.92 3358.5,228.5C 3368.87,236.028 3379.87,242.528 3391.5,248C 3409.74,255.618 3427.74,255.284 3445.5,247C 3459.84,235.652 3464.34,221.152 3459,203.5C 3456.27,197.437 3452.1,192.603 3446.5,189C 3428.95,180.561 3410.95,173.227 3392.5,167C 3353.11,149.278 3338.28,119.111 3348,76.5C 3354.31,46.8563 3372.14,28.3563 3401.5,21C 3407.3,20.1088 3412.97,19.2754 3418.5,18.5 Z"/></g>
<g><path style="opacity:0.987" fill="#177a56" d="M 3833.5,19.5 C 3883.4,16.5287 3920.9,36.5287 3946,79.5C 3965.08,114.825 3970.42,152.159 3962,191.5C 3954.03,228.302 3934.53,257.135 3903.5,278C 3850.19,304.87 3803.35,296.37 3763,252.5C 3733.47,213.032 3723.8,169.032 3734,120.5C 3741.79,85.7112 3759.96,57.8779 3788.5,37C 3802.51,28.2809 3817.51,22.4476 3833.5,19.5 Z M 3844.5,59.5 C 3882.28,62.4877 3907.78,81.8211 3921,117.5C 3933.85,156.54 3928.19,192.54 3904,225.5C 3875.09,256.216 3842.59,260.716 3806.5,239C 3780.88,217.421 3768.22,189.754 3768.5,156C 3768.21,117.9 3783.88,88.567 3815.5,68C 3824.79,63.4329 3834.46,60.5995 3844.5,59.5 Z"/></g>
<g><path style="opacity:0.988" fill="#177a56" d="M 2865.5,24.5 C 2899.86,24.0489 2934.2,24.5489 2968.5,26C 3003.52,35.2078 3021.85,58.0411 3023.5,94.5C 3023.38,116.237 3015.05,134.071 2998.5,148C 3020.84,163.351 3031.84,184.684 3031.5,212C 3031.51,243.94 3017.51,267.273 2989.5,282C 2984.07,284.442 2978.4,286.108 2972.5,287C 2936.83,287.5 2901.17,287.667 2865.5,287.5C 2865.5,199.833 2865.5,112.167 2865.5,24.5 Z M 2902.5,63.5 C 2921.17,63.3334 2939.84,63.5001 2958.5,64C 2975.79,69.3863 2984.79,81.2196 2985.5,99.5C 2984.85,118.3 2975.52,130.133 2957.5,135C 2939.17,135.5 2920.84,135.667 2902.5,135.5C 2902.5,111.5 2902.5,87.5 2902.5,63.5 Z M 2902.5,173.5 C 2923.17,173.333 2943.84,173.5 2964.5,174C 2983.27,179.288 2992.94,191.788 2993.5,211.5C 2992.29,232.825 2981.29,245.325 2960.5,249C 2941.17,249.5 2921.84,249.667 2902.5,249.5C 2902.5,224.167 2902.5,198.833 2902.5,173.5 Z"/></g>
<g><path style="opacity:0.988" fill="#167b57" d="M 3531.5,24.5 C 3590.5,24.5 3649.5,24.5 3708.5,24.5C 3708.5,37.8333 3708.5,51.1667 3708.5,64.5C 3685.5,64.5 3662.5,64.5 3639.5,64.5C 3639.5,138.833 3639.5,213.167 3639.5,287.5C 3626.83,287.5 3614.17,287.5 3601.5,287.5C 3601.5,213.167 3601.5,138.833 3601.5,64.5C 3578.17,64.5 3554.83,64.5 3531.5,64.5C 3531.5,51.1667 3531.5,37.8333 3531.5,24.5 Z"/></g>
<g><path style="opacity:0.987" fill="#177a56" d="M 4015.5,24.5 C 4030.74,24.1758 4045.91,24.5092 4061,25.5C 4095,90.1667 4129,154.833 4163,219.5C 4163.5,154.501 4163.67,89.5009 4163.5,24.5C 4175.17,24.5 4186.83,24.5 4198.5,24.5C 4198.5,112.167 4198.5,199.833 4198.5,287.5C 4183.92,287.824 4169.42,287.49 4155,286.5C 4121.18,220.851 4086.84,155.518 4052,90.5C 4051.5,156.166 4051.33,221.832 4051.5,287.5C 4039.5,287.5 4027.5,287.5 4015.5,287.5C 4015.5,199.833 4015.5,112.167 4015.5,24.5 Z"/></g>
<g><path style="opacity:0.986" fill="#177a56" d="M 2958.5,478.5 C 2993.11,474.591 3022.78,484.591 3047.5,508.5C 3041.42,520.326 3035.09,531.993 3028.5,543.5C 3010.48,525.77 2988.81,517.603 2963.5,519C 2933.78,524.705 2912.95,541.538 2901,569.5C 2885.37,609.869 2889.71,647.869 2914,683.5C 2937.89,711.412 2967.05,718.912 3001.5,706C 3011.21,701.48 3019.88,695.48 3027.5,688C 3028.33,687.312 3029,687.479 3029.5,688.5C 3035.33,699.5 3041.17,710.5 3047,721.5C 3047.75,722.635 3047.58,723.635 3046.5,724.5C 3015.49,751.138 2980.16,758.971 2940.5,748C 2905.33,735.498 2880.5,711.998 2866,677.5C 2847.23,628.751 2850.23,581.418 2875,535.5C 2894.29,503.94 2922.13,484.94 2958.5,478.5 Z"/></g>
<g><path style="opacity:0.987" fill="#177a56" d="M 3181.5,478.5 C 3235.3,476.477 3274.14,499.477 3298,547.5C 3313.86,583.755 3316.86,621.089 3307,659.5C 3297.2,694.631 3276.7,721.465 3245.5,740C 3203.32,760.09 3163.65,756.09 3126.5,728C 3089.66,693.173 3073.49,650.339 3078,599.5C 3082.22,555.53 3102.06,520.697 3137.5,495C 3151.19,486.606 3165.86,481.106 3181.5,478.5 Z M 3193.5,518.5 C 3224.28,520.784 3247.12,535.451 3262,562.5C 3277.51,595.38 3278.51,628.714 3265,662.5C 3253.21,688.629 3233.38,704.796 3205.5,711C 3172.06,713.533 3146.9,700.367 3130,671.5C 3110.67,634.167 3110.67,596.833 3130,559.5C 3144.33,535.094 3165.5,521.428 3193.5,518.5 Z"/></g>
<g><path style="opacity:0.985" fill="#177a56" d="M 3670.5,478.5 C 3699,475.872 3724.66,483.039 3747.5,500C 3748.9,501.062 3749.9,502.395 3750.5,504C 3744.96,515.581 3738.8,526.748 3732,537.5C 3722.5,530.834 3712.34,525.334 3701.5,521C 3685.65,515.523 3670.65,517.19 3656.5,526C 3643.68,539.435 3641.18,554.602 3649,571.5C 3655.43,578.913 3663.26,584.413 3672.5,588C 3693.02,594.393 3712.68,602.726 3731.5,613C 3751.4,627.633 3761.06,647.466 3760.5,672.5C 3756.16,730.002 3725.16,756.502 3667.5,752C 3641.96,749.287 3619.96,739.287 3601.5,722C 3607.28,710.277 3613.44,698.777 3620,687.5C 3637.82,702.321 3658.32,710.987 3681.5,713.5C 3713.84,710.352 3726.67,693.019 3720,661.5C 3713.55,651.679 3704.71,644.845 3693.5,641C 3672.44,634.652 3652.44,625.985 3633.5,615C 3618.68,603.871 3610.18,589.037 3608,570.5C 3604.91,548.384 3608.91,527.717 3620,508.5C 3632.72,491.395 3649.56,481.395 3670.5,478.5 Z"/></g>
<g><path style="opacity:0.987" fill="#177a56" d="M 4999.5,605.5 C 4999.5,617.5 4999.5,629.5 4999.5,641.5C 4996.35,667.437 4987.18,691.104 4972,712.5C 4939.05,750.865 4898.55,761.698 4850.5,745C 4813.43,726.914 4789.93,697.748 4780,657.5C 4769.64,614.722 4774.97,574.055 4796,535.5C 4828.19,485.835 4873.03,468.669 4930.5,484C 4942.58,488.537 4953.58,494.87 4963.5,503C 4957.21,515.076 4950.55,526.91 4943.5,538.5C 4916.58,516.826 4887.58,513.66 4856.5,529C 4832.02,546.092 4817.86,569.592 4814,599.5C 4810.28,629.238 4816.61,656.572 4833,681.5C 4855.18,709.78 4883.34,718.28 4917.5,707C 4939.69,696.13 4953.86,678.63 4960,654.5C 4961.16,650.218 4961.99,645.884 4962.5,641.5C 4937.5,641.5 4912.5,641.5 4887.5,641.5C 4893.35,628.126 4900.02,615.126 4907.5,602.5C 4937.83,601.5 4968.16,601.167 4998.5,601.5C 4998.23,603.099 4998.57,604.432 4999.5,605.5 Z"/></g>
<g><path style="opacity:0.984" fill="#177a56" d="M 3404.5,483.5 C 3405.98,483.238 3407.31,483.571 3408.5,484.5C 3442.33,548.833 3476.17,613.167 3510,677.5C 3510.5,613.168 3510.67,548.834 3510.5,484.5C 3522.5,483.167 3534.5,483.167 3546.5,484.5C 3546.5,572.167 3546.5,659.833 3546.5,747.5C 3531.92,747.824 3517.42,747.49 3503,746.5C 3468.33,680.5 3433.67,614.5 3399,548.5C 3398.5,614.832 3398.33,681.166 3398.5,747.5C 3386.5,747.5 3374.5,747.5 3362.5,747.5C 3362.5,659.833 3362.5,572.167 3362.5,484.5C 3376.68,484.829 3390.68,484.496 3404.5,483.5 Z"/></g>
<g><path style="opacity:0.987" fill="#177a56" d="M 3835.5,483.5 C 3839.5,483.5 3843.5,483.5 3847.5,483.5C 3847.33,540.834 3847.5,598.168 3848,655.5C 3850.41,679.184 3861.91,696.684 3882.5,708C 3920.34,717.993 3944.84,704.16 3956,666.5C 3956.77,662.853 3957.44,659.186 3958,655.5C 3958.5,598.501 3958.67,541.501 3958.5,484.5C 3970.83,484.5 3983.17,484.5 3995.5,484.5C 3995.67,541.834 3995.5,599.168 3995,656.5C 3992.87,689.602 3979.04,716.435 3953.5,737C 3929.73,752.751 3904.07,756.751 3876.5,749C 3840.03,734.845 3818.53,708.345 3812,669.5C 3810.98,663.207 3810.31,656.874 3810,650.5C 3809.5,595.168 3809.33,539.834 3809.5,484.5C 3818.35,484.826 3827.02,484.493 3835.5,483.5 Z"/></g>
<g><path style="opacity:0.998" fill="#177a57" d="M 4058.5,483.5 C 4070.83,483.5 4083.17,483.5 4095.5,483.5C 4095.5,557.833 4095.5,632.167 4095.5,706.5C 4131.83,706.5 4168.17,706.5 4204.5,706.5C 4204.5,720.167 4204.5,733.833 4204.5,747.5C 4155.5,747.5 4106.5,747.5 4057.5,747.5C 4058.16,659.399 4058.49,571.399 4058.5,483.5 Z"/></g>
<g><path style="opacity:0.98" fill="#177a57" d="M 4196.5,483.5 C 4255.84,484.59 4315.17,484.59 4374.5,483.5C 4374.5,497.167 4374.5,510.833 4374.5,524.5C 4351.17,524.5 4327.83,524.5 4304.5,524.5C 4304.5,598.833 4304.5,673.167 4304.5,747.5C 4291.83,747.5 4279.17,747.5 4266.5,747.5C 4266.5,673.167 4266.5,598.833 4266.5,524.5C 4243.5,524.667 4220.5,524.5 4197.5,524C 4196.51,510.579 4196.18,497.079 4196.5,483.5 Z"/></g>
<g><path style="opacity:0.984" fill="#177a57" d="M 4452.5,483.5 C 4456.5,483.5 4460.5,483.5 4464.5,483.5C 4464.5,571.5 4464.5,659.5 4464.5,747.5C 4451.83,747.5 4439.17,747.5 4426.5,747.5C 4426.5,659.833 4426.5,572.167 4426.5,484.5C 4435.35,484.826 4444.02,484.493 4452.5,483.5 Z"/></g>
<g><path style="opacity:0.988" fill="#177a56" d="M 4576.5,483.5 C 4580.18,483.335 4583.85,483.501 4587.5,484C 4621.79,548.754 4655.96,613.588 4690,678.5C 4690.5,613.834 4690.67,549.168 4690.5,484.5C 4702.17,484.5 4713.83,484.5 4725.5,484.5C 4725.5,572.167 4725.5,659.833 4725.5,747.5C 4711.15,747.833 4696.82,747.499 4682.5,746.5C 4648,680.833 4613.5,615.167 4579,549.5C 4578.5,615.499 4578.33,681.499 4578.5,747.5C 4566.5,747.5 4554.5,747.5 4542.5,747.5C 4542.5,659.833 4542.5,572.167 4542.5,484.5C 4554.01,484.828 4565.35,484.495 4576.5,483.5 Z"/></g>
<g><path style="opacity:0.988" fill="#177a56" d="M 2958.5,937.5 C 2989.9,934.512 3017.9,942.679 3042.5,962C 3036.03,973.961 3029.37,985.795 3022.5,997.5C 2995.52,975.879 2966.52,972.713 2935.5,988C 2908.14,1007.21 2893.64,1033.71 2892,1067.5C 2890.4,1096.03 2898.07,1121.7 2915,1144.5C 2940.48,1172.66 2970.31,1178.5 3004.5,1162C 3022.58,1150.22 3034.08,1133.72 3039,1112.5C 3040.16,1108.22 3040.99,1103.88 3041.5,1099.5C 3016.49,1099.83 2991.49,1099.5 2966.5,1098.5C 2972.91,1086.01 2979.58,1073.67 2986.5,1061.5C 3016.83,1060.5 3047.16,1060.17 3077.5,1060.5C 3082.93,1103.44 3072.77,1142.1 3047,1176.5C 3014.7,1210.5 2976.2,1220 2931.5,1205C 2900.13,1190.63 2877.96,1167.46 2865,1135.5C 2847.21,1086.92 2850.54,1039.92 2875,994.5C 2894.34,962.923 2922.17,943.923 2958.5,937.5 Z"/></g>
<g><path style="opacity:0.987" fill="#177a56" d="M 3441.5,937.5 C 3490.3,935.646 3527.13,955.646 3552,997.5C 3571.84,1034.55 3576.84,1073.55 3567,1114.5C 3556.03,1156.66 3530.86,1186.82 3491.5,1205C 3428.07,1221.37 3381.24,1200.53 3351,1142.5C 3335.58,1107.66 3332.25,1071.66 3341,1034.5C 3351.97,992.342 3377.14,962.175 3416.5,944C 3424.84,941.332 3433.18,939.166 3441.5,937.5 Z M 3443.5,978.5 C 3482.32,977.497 3509.49,994.83 3525,1030.5C 3539.46,1068.45 3535.79,1104.45 3514,1138.5C 3483.94,1175.02 3449.11,1180.52 3409.5,1155C 3379.44,1125.96 3368.61,1090.8 3377,1049.5C 3385.06,1012.28 3407.23,988.613 3443.5,978.5 Z"/></g>
<g><path style="opacity:0.99" fill="#177a56" d="M 3128.5,942.5 C 3160.17,942.333 3191.84,942.5 3223.5,943C 3261,947.16 3284.17,967.66 3293,1004.5C 3298.92,1032.28 3294.58,1058.28 3280,1082.5C 3271.27,1093.95 3260.1,1102.12 3246.5,1107C 3264.04,1139.91 3281.71,1172.75 3299.5,1205.5C 3284.83,1206.83 3270.17,1206.83 3255.5,1205.5C 3239.33,1174.5 3223.17,1143.5 3207,1112.5C 3193.25,1111.51 3179.41,1111.18 3165.5,1111.5C 3165.5,1143.17 3165.5,1174.83 3165.5,1206.5C 3153.17,1206.5 3140.83,1206.5 3128.5,1206.5C 3128.5,1118.5 3128.5,1030.5 3128.5,942.5 Z M 3165.5,983.5 C 3186.17,983.333 3206.84,983.5 3227.5,984C 3247.88,991.412 3257.54,1006.08 3256.5,1028C 3257.61,1047.81 3249.27,1061.81 3231.5,1070C 3228.58,1070.99 3225.58,1071.65 3222.5,1072C 3203.5,1072.5 3184.5,1072.67 3165.5,1072.5C 3165.5,1042.83 3165.5,1013.17 3165.5,983.5 Z"/></g>
<g><path style="opacity:0.987" fill="#177a56" d="M 3618.5,942.5 C 3630.83,942.5 3643.17,942.5 3655.5,942.5C 3655.33,998.168 3655.5,1053.83 3656,1109.5C 3656.89,1130.21 3665.06,1147.38 3680.5,1161C 3703.38,1175.87 3725.38,1174.7 3746.5,1157.5C 3759.05,1144.05 3765.89,1128.05 3767,1109.5C 3767.5,1053.83 3767.67,998.168 3767.5,942.5C 3779.5,942.5 3791.5,942.5 3803.5,942.5C 3804.42,993.831 3804.59,1045.16 3804,1096.5C 3805.88,1127.67 3797.55,1155.67 3779,1180.5C 3753.17,1208.66 3721.67,1217.83 3684.5,1208C 3649.25,1194.4 3628.09,1168.9 3621,1131.5C 3620.11,1126.53 3619.45,1121.53 3619,1116.5C 3618.5,1058.5 3618.33,1000.5 3618.5,942.5 Z"/></g>
<g><path style="opacity:0.992" fill="#177a56" d="M 3868.5,942.5 C 3899.17,942.333 3929.84,942.5 3960.5,943C 3998.27,947.135 4021.77,967.635 4031,1004.5C 4037.63,1034.08 4032.63,1061.41 4016,1086.5C 4003.67,1101.75 3987.83,1110.92 3968.5,1114C 3947.53,1115.36 3926.53,1115.86 3905.5,1115.5C 3905.32,1145.84 3905.65,1176.17 3906.5,1206.5C 3893.5,1206.5 3880.5,1206.5 3867.5,1206.5C 3868.48,1118.52 3868.82,1030.52 3868.5,942.5 Z M 3944.5,982.5 C 3973.28,980.787 3990.12,994.12 3995,1022.5C 3997.45,1041.83 3991.28,1057.67 3976.5,1070C 3970.61,1073.39 3964.28,1075.39 3957.5,1076C 3940.17,1076.5 3922.84,1076.67 3905.5,1076.5C 3905.5,1045.5 3905.5,1014.5 3905.5,983.5C 3918.68,983.829 3931.68,983.495 3944.5,982.5 Z"/></g>
</svg>
